Coordinates
version=1
nRows=26
nColumns=24
inDegrees=yes

Units are S.I. units (second, meters, Newtons, ...)
Angles are in degrees.

endheader
time	pelvis_tilt	pelvis_list	pelvis_rotation	pelvis_tx	pelvis_ty	pelvis_tz	hip_flexion_r	hip_adduction_r	hip_rotation_r	knee_angle_r	ankle_angle_r	subtalar_angle_r	mtp_angle_r	hip_flexion_l	hip_adduction_l	hip_rotation_l	knee_angle_l	ankle_angle_l	subtalar_angle_l	mtp_angle_l	lumbar_extension	lumbar_bending	lumbar_rotation
      0.83300000	      1.09318417	      0.59868024	      2.14447863	     -0.50485919	      1.02390713	      0.27559818	      5.91337746	      4.61285275	     -0.98212025	    -11.37404908	      3.72579488	    -14.78755662	      7.25145688	     13.31807650	     -1.36537693	     -2.25331164	    -65.27798740	      2.51211226	    -14.43043488	      2.51376358	     -2.77902992	      0.07280974	      2.17166959
      0.83716667	      1.07411293	      0.72206029	      1.89717678	     -0.49977040	      1.02449122	      0.27607053	      5.46882905	      4.50854498	     -0.83124536	    -11.07399337	      3.81676107	    -14.60795869	      7.27199867	     13.81688534	     -1.23525466	     -2.42214144	    -64.88883865	      2.78398011	    -14.13726434	      2.55038706	     -2.78474396	     -0.05769739	      2.51136176
      0.84133333	      1.08577183	      0.84022781	      1.65442063	     -0.49470948	      1.02508825	      0.27653702	      4.98812995	      4.40821048	     -0.67540414	    -10.76305509	      3.90810535	    -14.42941743	      7.29283961	     14.27563502	     -1.11672262	     -2.58912027	    -64.45664964	      3.04088487	    -13.80076986	      2.59042154	     -2.83811856	     -0.18549945	      2.83455049
      0.84550000	      1.08221266	      0.96719583	      1.40210749	     -0.48965700	      1.02561891	      0.27700800	      4.53163804	      4.29380794	     -0.52735404	    -10.46434263	      4.00306779	    -14.24289596	      7.31643860	     14.73902348	     -0.99329340	     -2.76920580	    -63.97825875	      3.28216618	    -13.44360526	      2.63713214	     -2.86883245	     -0.32849151	      3.17488304
      0.84966667	      1.10234409	      1.07283231	      1.15697808	     -0.48462530	      1.02613383	      0.27745992	      4.04590329	      4.19972375	     -0.37767010	    -10.15320938	      4.08888395	    -14.06478029	      7.34302444	     15.17251885	     -0.89679303	     -2.94112641	    -63.46906684	      3.52055652	    -13.05632882	      2.69267774	     -2.92825830	     -0.43819727	      3.51382993
      0.85383333	      1.08726294	      1.18749759	      0.90856992	     -0.47960013	      1.02655813	      0.27790819	      3.60612887	      4.09153437	     -0.22937773	     -9.85592674	      4.18328243	    -13.88669022	      7.37122038	     15.63362434	     -0.79323153	     -3.12057546	    -62.91616735	      3.73130085	    -12.66142787	      2.75340258	     -2.94740879	     -0.56676018	      3.84151545
      0.85800000	      1.10476793	      1.28286476	      0.66674266	     -0.47460084	      1.02697302	      0.27834679	      3.12813667	      4.00260778	     -0.08085059	     -9.54779379	      4.27140441	    -13.72125932	      7.39982108	     16.05393678	     -0.71592056	     -3.29502477	    -62.33305389	      3.94204505	    -12.24495593	      2.81796288	     -3.00530162	     -0.66910508	      4.15949440
      0.86216667	      1.09777499	      1.38578262	      0.41349038	     -0.46961263	      1.02731365	      0.27877462	      2.69029073	      3.90027846	      0.06847663	     -9.26375528	      4.33727002	    -13.56320152	      7.42126986	     16.48642660	     -0.63085838	     -3.47943209	    -61.70238759	      4.12291632	    -11.82957462	      2.86855377	     -3.02898375	     -0.77354617	      4.41179620
      0.86633333	      1.09688355	      1.45857359	      0.18334002	     -0.46465051	      1.02759421	      0.27919624	      2.23335327	      3.83148575	      0.22265412	     -8.95192122	      4.45156017	    -13.41581337	      7.45187892	     16.91616546	     -0.58496516	     -3.64616575	    -61.06194563	      4.32457464	    -11.39332708	      2.94339526	     -3.07617854	     -0.86041680	      4.78755114
      0.87050000	      1.09384457	      1.56184424	     -0.06161975	     -0.45968993	      1.02786551	      0.27959899	      1.79685035	      3.72275131	      0.36964037	     -8.67423425	      4.51252458	    -13.26743441	      7.47129346	     17.32101911	     -0.50021486	     -3.82408909	    -60.34787538	      4.46076505	    -11.00743024	      2.99192462	     -3.10603219	     -0.96905392	      5.00655472
      0.87466667	      1.12402583	      1.61241320	     -0.28361445	     -0.45475847	      1.02809527	      0.27999720	      1.30454142	      3.67300431	      0.52824381	     -8.35371153	      4.62842120	    -13.14252989	      7.50313951	     17.69749690	     -0.48335310	     -3.98636746	    -59.64093841	      4.64872141	    -10.56456870	      3.07602714	     -3.19293856	     -1.02498400	      5.39512129
      0.87883333	      1.10595376	      1.67670121	     -0.51098091	     -0.44982885	      1.02822835	      0.28038095	      0.87944884	      3.60426798	      0.69015325	     -8.06233504	      4.71319444	    -13.03325231	      7.53386572	     18.10905469	     -0.44837919	     -4.15094216	    -58.88363213	      4.79021446	    -10.16342997	      3.16215687	     -3.21573538	     -1.09696037	      5.69542821
      0.88300000	      1.09457022	      1.75113820	     -0.73893601	     -0.44491781	      1.02834562	      0.28074925	      0.45820696	      3.51977051	      0.83631918	     -7.78924843	      4.77595246	    -12.91576910	      7.55256715	     18.49440634	     -0.39863036	     -4.31243024	    -58.07184995	      4.89429273	     -9.80278872	      3.21594178	     -3.24110728	     -1.17947995	      5.89007743
      0.88716667	      1.08772621	      1.80142354	     -0.95354497	     -0.44001668	      1.02839919	      0.28109980	      0.02554315	      3.46066262	      0.98963966	     -7.50414675	      4.86824077	    -12.81519998	      7.57262708	     18.87135500	     -0.37904164	     -4.46614603	    -57.24729552	      5.01643451	     -9.41300852	      3.27672266	     -3.28216385	     -1.23509050	      6.15624899
      0.89133333	      1.08200307	      1.84792132	     -1.15670851	     -0.43512500	      1.02842208	      0.28143469	     -0.40926875	      3.40363712	      1.14049658	     -7.21544208	      4.95611600	    -12.72438536	      7.59108631	     19.23439464	     -0.35995589	     -4.60682464	    -56.38405457	      5.11342839	     -9.06437442	      3.33423172	     -3.32483336	     -1.29030425	      6.40472055
      0.89550000	      1.10474653	      1.86921585	     -1.34688541	     -0.43024338	      1.02844291	      0.28174938	     -0.88823097	      3.37230535	      1.30410808	     -6.90034808	      5.05570546	    -12.66980783	      7.61945757	     19.55712452	     -0.36681555	     -4.73306906	    -55.49788626	      5.21959856	     -8.71640198	      3.43489031	     -3.41054376	     -1.30851570	      6.75864984
      0.89966667	      1.07704423	      1.89259628	     -1.53137384	     -0.42537087	      1.02833620	      0.28204302	     -1.29492007	      3.33660864	      1.45452944	     -6.62091360	      5.14482428	    -12.61321883	      7.64454345	     19.92320776	     -0.36966168	     -4.85338144	    -54.57836440	      5.29339626	     -8.39014195	      3.53129976	     -3.42984900	     -1.33481679	      6.99167888
      0.90383333	      1.04532948	      1.93516379	     -1.70940107	     -0.42048924	      1.02822499	      0.28230608	     -1.68799169	      3.27522120	      1.57338536	     -6.35949967	      5.21634614	    -12.52889800	      7.65732223	     20.26801229	     -0.34107151	     -4.96028604	    -53.59547294	      5.31689928	     -8.11523599	      3.58097264	     -3.43890654	     -1.38748602	      7.12610162
      0.90800000	      1.07029009	      1.93635589	     -1.86805373	     -0.41562497	      1.02812073	      0.28255285	     -2.16497611	      3.25808726	      1.71689882	     -6.05514316	      5.32439956	    -12.48390012	      7.67729529	     20.54952965	     -0.35994518	     -5.05534177	    -52.61121016	      5.37971371	     -7.80813075	      3.67549655	     -3.53126418	     -1.38557239	      7.40433556
      0.91216667	      1.01489387	      1.95605018	     -2.01830246	     -0.41074449	      1.02788024	      0.28276543	     -2.53188565	      3.21917461	      1.82351633	     -5.79804824	      5.40094356	    -12.42035595	      7.68817543	     20.89793205	     -0.34952158	     -5.13295391	    -51.57523707	      5.38252379	     -7.55629712	      3.72864262	     -3.51629704	     -1.41185551	      7.52966564
      0.91633333	      1.00553497	      1.94963465	     -2.15423072	     -0.40587030	      1.02766214	      0.28296520	     -2.96658170	      3.20783601	      1.95499234	     -5.50810594	      5.50880543	    -12.38710221	      7.70431768	     21.18506984	     -0.36511585	     -5.19800243	    -50.51728190	      5.40531230	     -7.29226981	      3.82933637	     -3.56547671	     -1.39948415	      7.77440203
      0.92050000	      0.94306455	      1.95185353	     -2.27429073	     -0.40098702	      1.02734340	      0.28312487	     -3.32648996	      3.18577125	      2.03755130	     -5.25357757	      5.59171410	    -12.32572616	      7.71176189	     21.51350031	     -0.36328150	     -5.24350539	    -49.41728161	      5.38284826	     -7.06107691	      3.87942437	     -3.54575894	     -1.40321173	      7.86878116
      0.92466667	      0.90151723	      1.94699246	     -2.38313804	     -0.39610123	      1.02701713	      0.28327010	     -3.71421024	      3.17024741	      2.12142411	     -4.99082122	      5.69467986	    -12.26912856	      7.71819613	     21.80281353	     -0.36483951	     -5.27870892	    -48.28391036	      5.35741235	     -6.83111986	      3.93014713	     -3.55335591	     -1.40183808	      7.99390420
      0.92883333	      0.86335692	      1.94128388	     -2.48138244	     -0.39120684	      1.02667025	      0.28339094	     -4.10489825	      3.15393951	      2.19766832	     -4.73228599	      5.79974340	    -12.21763080	      7.72343066	     22.06958616	     -0.36136031	     -5.30258246	    -47.10972180	      5.31840259	     -6.61521962	      3.98341273	     -3.56617469	     -1.39541206	      8.12377595
      0.93300000	      0.81830885	      1.92309688	     -2.56601090	     -0.38631454	      1.02627278	      0.28348641	     -4.48706625	      3.15135992	      2.26321873	     -4.47766883	      5.90843778	    -12.16760243	      7.72760733	     22.33117989	     -0.36594897	     -5.31095970	    -45.90914937	      5.26953132	     -6.41055323	      4.04125947	     -3.57429684	     -1.37696316	      8.25021640
      0.93716667	      0.77183607	      1.90676722	     -2.63811713	     -0.38141500	      1.02584405	      0.28356840	     -4.86676835	      3.14667277	      2.31953681	     -4.22704987	      6.02189302	    -12.11666427	      7.73033617	     22.57584452	     -0.36474313	     -5.31118071	    -44.66858013	      5.20787970	     -6.21303374	      4.09831581	     -3.58022514	     -1.35926220	      8.35711732
